<svg width="8" height="8" viewBox="0 0 8 8" fill="none" xmlns="http://www.w3.org/2000/svg">
<path d="M3.61623 8C3.08544 8 2.88305 7.83198 2.88305 7.30501V5.2926L1.14558 6.2969C0.981384 6.38473 0.836277 6.44582 0.714081 6.44582C0.49642 6.44582 0.343675 6.30072 0.183294 6.02196L0.160382 5.98759C0.0610979 5.81193 0 5.65537 0 5.52554C0 5.31551 0.145107 5.15895 0.408592 5.01384L2.20334 3.97518L0.412411 2.98998C0.145107 2.84105 0.0190931 2.68449 0.0190931 2.4821C0.0190931 2.35227 0.0725537 2.19952 0.156563 2.02387L0.179475 1.98186C0.313126 1.68783 0.484964 1.54272 0.694988 1.54272C0.824821 1.54272 0.981384 1.60382 1.1494 1.69928L2.88305 2.70358V0.694988C2.88305 0.168019 3.08544 0 3.61623 0H3.66587C4.19666 0 4.39905 0.168019 4.39905 0.694988V2.7074L6.13652 1.69928C6.30453 1.61146 6.44582 1.55418 6.56802 1.55418C6.77422 1.55418 6.93079 1.69547 7.10263 1.97422L7.12936 2.02387C7.22482 2.1957 7.2821 2.34463 7.2821 2.47446C7.2821 2.68831 7.14463 2.84487 6.87733 2.98616L5.0864 3.97518L6.88115 5.01384C7.14463 5.15895 7.29356 5.31933 7.29356 5.53317C7.29356 5.66301 7.23628 5.81957 7.12172 5.99141L7.09499 6.03341C6.91933 6.2969 6.77422 6.442 6.5642 6.442C6.442 6.442 6.30835 6.38473 6.14033 6.2969L4.39905 5.28878V7.30501C4.39905 7.83198 4.19666 8 3.66587 8H3.61623Z" fill="#EBEBEB"/>
</svg>
