<?xml version="1.0" encoding="UTF-8"?>
<svg id="Layer_2" xmlns="http://www.w3.org/2000/svg" viewBox="0 0 168 49.45">
  <defs>
    <style>
      .cls-1 {
        fill: #ebebeb;
      }

      .cls-2 {
        fill: #fff;
      }
    </style>
  </defs>
  <g id="Layer_1-2" data-name="Layer_1">
    <g>
      <path class="cls-1" d="M11.62,49.14L5.84,17.02c-.5-2.69-.91-4.33-1.24-4.91-.33-.58-1.16-.95-2.48-1.12l-1.99-.25-.12-.99h17.83l-.19.99-2.42.19c-1.53.08-2.44.41-2.73.99-.29.58-.23,1.78.19,3.6l4.16,25.04h.25l11.37-21.31.06-.06v-.06l.06-.06v-.06c1.9-3.35,2.86-5.41,2.86-6.15,0-.91-.79-1.49-2.36-1.74l-1.18-.12-1.86-.25-.12-.99h13.85l-.25.99-1.3.25c-1.74.29-3.09.98-4.04,2.08-.95,1.1-2.82,4.13-5.59,9.1l-14.79,26.96h-2.17Z"/>
      <path class="cls-1" d="M44.56,48.58c-4.61,0-8.45-1.64-11.51-4.93-2.86-3.09-4.29-6.71-4.29-10.86s1.54-8.08,4.63-11.16,6.81-4.63,11.16-4.63,8.26,1.58,11.33,4.74c2.97,3.07,4.46,6.76,4.46,11.05s-1.52,8.18-4.56,11.23-6.78,4.56-11.23,4.56ZM37.96,38.98c1.83,1.51,4.04,2.27,6.64,2.27,2.79,0,5.03-.87,6.75-2.62s2.57-3.82,2.57-6.22l-3.62-.17c0,1.17-.44,2.17-1.33,3.01s-2.31,1.25-4.26,1.25-3.45-.38-4.42-1.14-1.47-1.73-1.47-2.91l-3.6.34c0,2.63.91,4.69,2.74,6.19ZM38.78,29.28c.51.54,1.14.81,1.89.81s1.38-.27,1.92-.81.8-1.17.8-1.89-.27-1.38-.8-1.92-1.17-.8-1.92-.8-1.37.27-1.9.8-.78,1.17-.78,1.92.26,1.34.79,1.89ZM47.35,29.28c.51.54,1.14.81,1.89.81s1.38-.27,1.92-.81.8-1.17.8-1.89-.27-1.38-.8-1.92-1.17-.8-1.92-.8-1.37.27-1.9.8-.78,1.17-.78,1.92.26,1.34.79,1.89Z"/>
      <g>
        <path class="cls-1" d="M71,0h-6.77v3.38h-3.38v6.77h3.38v3.38h6.77v-3.38h3.38V3.38h-3.38V0Z"/>
        <rect class="cls-2" x="64.63" y="3.78" width="5.98" height="5.98"/>
      </g>
      <rect class="cls-1" x="64.63" y="15.64" width="5.98" height="32.94"/>
      <path class="cls-1" d="M86.31,10.75c.19-.62.06-.93-.93-1.12l-2.49-.5.19-.68,9.07-1.93-8.14,28.14h.37c4.6-10.25,7.89-13.54,11.06-13.54,2.73,0,3.73,1.99,3.73,5.96,0,9.57-7.77,22.36-16.28,22.36-3.54,0-6.46-1.99-5.34-6.21l8.76-32.49ZM94.2,26.96c0-1.55-.31-2.24-1.37-2.24-3.35,0-11.18,16.71-11.18,19.57,0,1.8,1.06,3.73,3.23,3.73.93,0,1.86-.5,2.73-1.49,3.42-3.73,6.59-12.98,6.59-19.57Z"/>
      <path class="cls-1" d="M120.91,40.81l.56.43c-3.35,6.15-5.47,8.2-7.45,8.2-1.24,0-3.6-1.43-3.6-2.11,0-.99.19-1.68,5.71-15.84,1.24-3.23,1.68-4.66,1.68-5.96,0-.75-1.3-1.43-2.11-1.43-1.12,0-3.66,2.92-11.55,20.38l-1.3,4.35-4.22-.44,2.98-9.57,7.64-28.08c.19-.62.06-.93-.93-1.12l-2.48-.5.19-.68,9.07-1.93-9.75,32.18.31.12c3.79-8.01,6.34-13.42,8.76-15.96,1.12-1.18,2.42-1.74,3.6-1.74,2.55,0,4.29,1.74,4.29,3.6,0,1.99-1.74,6.83-3.23,10.44l-4.66,11.18,2.24.25,4.29-5.78Z"/>
      <path class="cls-1" d="M144.83,40.81l.56.43c-3.35,6.15-5.47,8.2-7.45,8.2-1.24,0-3.6-1.49-3.6-2.17,0-.93.31-2.73,2.92-10.31h-.25c-4.47,8.08-7.33,12.49-10.19,12.49-2.67,0-4.29-1.99-4.29-5.22,0-9.19,8.45-23.11,15.41-23.11,1.99,0,2.11,2.36,2.11,5.65h.25l1.99-5.65,4.35.25-4.16,12.11-3.85,12.86,1.92.25,4.29-5.78ZM134.58,23.98c-4.1,0-7.2,13.04-7.2,19.44,0,1.55.68,2.36,1.55,2.36,2.05,0,5.41-5.78,9.44-13.36.43-.81.93-2.86.93-3.73-.31-2.36-2.61-4.72-4.72-4.72Z"/>
      <path class="cls-1" d="M151.1,24.79l-3.91,5.03-.56-.43c2.49-5.16,5.28-8.26,7.39-8.26,1.49,0,4.47.62,4.47,1.18,0,1.68-7.89,14.22-7.89,19.38,0,2.17,2.3,3.98,4.22,3.98,2.61,0,10.37-12.86,10.44-18.26-1.61.37-3.91-.93-3.91-2.98s1.61-3.29,3.29-3.29c1.99,0,3.36,1.43,3.36,3.91,0,7.33-11.06,24.41-17.15,24.41-2.11,0-4.54-1.86-4.54-4.1,0-2.92,5.96-14.66,8.95-19.69l-4.16-.87Z"/>
    </g>
  </g>
</svg>