<svg width="47" height="32" viewBox="0 0 47 32" fill="none" xmlns="http://www.w3.org/2000/svg">
<path fill-rule="evenodd" clip-rule="evenodd" d="M16.7231 0.188534C12.0524 0.321012 7.89905 0.632127 5.83754 1.00385C3.97562 1.33959 2.52103 2.41113 1.69177 4.05786C1.36758 4.70155 1.19465 5.35469 0.979537 6.74803C0.604206 9.17858 0.443194 11.3835 0.38584 14.8801C0.308115 19.6127 0.653325 24.2673 1.26198 26.6946C1.76776 28.7115 3.16695 30.2382 5.05719 30.8355C6.21208 31.2004 9.03682 31.4714 14.3394 31.7257C17.0135 31.8539 30.1073 31.8545 32.6509 31.7265C36.4567 31.535 38.787 31.3201 40.2716 31.024C42.3573 30.608 43.9569 29.2831 44.6345 27.4104C44.9624 26.5042 45.3594 23.946 45.5758 21.3452C46.0338 15.8402 45.7002 8.76742 44.8185 5.28708C44.2975 3.2307 42.9297 1.77062 40.9218 1.12751C39.7263 0.744597 37.359 0.516696 32.1452 0.282511C30.5665 0.211649 18.5016 0.138114 16.7231 0.188534ZM18.6373 15.9998C18.6373 19.7145 18.6648 22.7537 18.6983 22.7537C18.7901 22.7537 30.4229 16.0668 30.4362 16.0064C30.4482 15.9518 18.8051 9.24583 18.6983 9.24583C18.6648 9.24583 18.6373 12.2851 18.6373 15.9998Z" fill="#FF0000"/>
</svg>
